<svg xmlns="http://www.w3.org/2000/svg" viewBox="0 0 256 256" role="img" aria-label="Biro.dev small-size favicon"><title>Biro.dev small-size favicon</title><defs>
        <linearGradient id="bl" x1="0%" y1="0%" x2="72%" y2="100%"><stop offset="0%" stop-color="#70AFFF"/><stop offset="57%" stop-color="#A0C8FF"/><stop offset="100%" stop-color="#DAECFF"/></linearGradient>
        <linearGradient id="br" x1="15%" y1="0%" x2="80%" y2="100%"><stop offset="0%" stop-color="#83BEFF"/><stop offset="55%" stop-color="#70ADFB"/><stop offset="100%" stop-color="#5698F5"/></linearGradient>
    </defs><rect width="256" height="256" rx="54" fill="#090F1B"/><g transform="translate(49 15) scale(0.66)"><g transform="translate(-8 0)"><path d="M 11 24 L 18 24 C 50 24 74 50 74 82 L 74 197 C 74 219 83 238 110 242 L 122 242 C 139 242 151 255 151 273 L 151 329 C 115 337 77 327 49 306 C 21 285 7 254 7 221 L 7 29 C 7 26 8 24 11 24 Z" fill="url(#bl)"/></g><g transform="translate(10 0)"><path d="M 93 121 C 106 118 120 116 135 116 C 191 116 238 154 240 205 C 242 255 219 288 175 319 L 175 235 C 175 201 153 184 124 184 L 117 184 C 99 184 90 174 90 152 L 90 127 C 90 124 91 123 93 121 Z" fill="url(#br)"/></g></g></svg>
